<?xml version="1.0" encoding="UTF-8"?>
<svg xmlns="http://www.w3.org/2000/svg" width="1100" height="620" viewBox="0 0 1100 620">
  <defs>
    <linearGradient id="bg" x1="0" x2="1" y1="0" y2="1">
      <stop offset="0%" stop-color="#0f172a"/>
      <stop offset="100%" stop-color="#1e293b"/>
    </linearGradient>
    <linearGradient id="bar" x1="0" x2="0" y1="0" y2="1">
      <stop offset="0%" stop-color="#22d3ee"/>
      <stop offset="100%" stop-color="#0891b2"/>
    </linearGradient>
  </defs>

  <rect x="0" y="0" width="1100" height="620" fill="url(#bg)" rx="20"/>

  <text x="90" y="42" fill="#e2e8f0" font-size="28" font-family="Segoe UI, Arial, sans-serif" font-weight="700">
    signalops_aggregation_duration_seconds histogram
  </text>
  <text x="90" y="68" fill="#94a3b8" font-size="16" font-family="Segoe UI, Arial, sans-serif">
    Pipeline: sla_snapshot | Source: m11-admin-metrics-after-load.json
  </text>

  <line x1="90" y1="480" x2="1060" y2="480" stroke="#334155" stroke-width="1" />
  <text x="78" y="485" text-anchor="end" fill="#94a3b8" font-size="12" font-family="Segoe UI, Arial, sans-serif">0</text>
  <line x1="90" y1="380" x2="1060" y2="380" stroke="#334155" stroke-width="1" />
  <text x="78" y="385" text-anchor="end" fill="#94a3b8" font-size="12" font-family="Segoe UI, Arial, sans-serif">0.25</text>
  <line x1="90" y1="280" x2="1060" y2="280" stroke="#334155" stroke-width="1" />
  <text x="78" y="285" text-anchor="end" fill="#94a3b8" font-size="12" font-family="Segoe UI, Arial, sans-serif">0.5</text>
  <line x1="90" y1="180" x2="1060" y2="180" stroke="#334155" stroke-width="1" />
  <text x="78" y="185" text-anchor="end" fill="#94a3b8" font-size="12" font-family="Segoe UI, Arial, sans-serif">0.75</text>
  <line x1="90" y1="80" x2="1060" y2="80" stroke="#334155" stroke-width="1" />
  <text x="78" y="85" text-anchor="end" fill="#94a3b8" font-size="12" font-family="Segoe UI, Arial, sans-serif">1</text>

  <line x1="90" y1="480" x2="1060" y2="480" stroke="#cbd5e1" stroke-width="1.5"/>
  <line x1="90" y1="80" x2="90" y2="480" stroke="#cbd5e1" stroke-width="1.5"/>

  <rect x="90" y="480" width="112" height="1" fill="url(#bar)" rx="6"/>
  <text x="146" y="502" text-anchor="middle" fill="#cbd5e1" font-size="12" font-family="Segoe UI, Arial, sans-serif"><= 0.01s</text>
  <text x="146" y="472" text-anchor="middle" fill="#67e8f9" font-size="12" font-family="Segoe UI, Arial, sans-serif">0</text>
  <rect x="212" y="80" width="112" height="400" fill="url(#bar)" rx="6"/>
  <text x="268" y="502" text-anchor="middle" fill="#cbd5e1" font-size="12" font-family="Segoe UI, Arial, sans-serif"><= 0.05s</text>
  <text x="268" y="72" text-anchor="middle" fill="#67e8f9" font-size="12" font-family="Segoe UI, Arial, sans-serif">1</text>
  <rect x="334" y="80" width="112" height="400" fill="url(#bar)" rx="6"/>
  <text x="390" y="502" text-anchor="middle" fill="#cbd5e1" font-size="12" font-family="Segoe UI, Arial, sans-serif"><= 0.1s</text>
  <text x="390" y="72" text-anchor="middle" fill="#67e8f9" font-size="12" font-family="Segoe UI, Arial, sans-serif">1</text>
  <rect x="456" y="80" width="112" height="400" fill="url(#bar)" rx="6"/>
  <text x="512" y="502" text-anchor="middle" fill="#cbd5e1" font-size="12" font-family="Segoe UI, Arial, sans-serif"><= 0.5s</text>
  <text x="512" y="72" text-anchor="middle" fill="#67e8f9" font-size="12" font-family="Segoe UI, Arial, sans-serif">1</text>
  <rect x="578" y="80" width="112" height="400" fill="url(#bar)" rx="6"/>
  <text x="634" y="502" text-anchor="middle" fill="#cbd5e1" font-size="12" font-family="Segoe UI, Arial, sans-serif"><= 1s</text>
  <text x="634" y="72" text-anchor="middle" fill="#67e8f9" font-size="12" font-family="Segoe UI, Arial, sans-serif">1</text>
  <rect x="700" y="80" width="112" height="400" fill="url(#bar)" rx="6"/>
  <text x="756" y="502" text-anchor="middle" fill="#cbd5e1" font-size="12" font-family="Segoe UI, Arial, sans-serif"><= 2s</text>
  <text x="756" y="72" text-anchor="middle" fill="#67e8f9" font-size="12" font-family="Segoe UI, Arial, sans-serif">1</text>
  <rect x="822" y="80" width="112" height="400" fill="url(#bar)" rx="6"/>
  <text x="878" y="502" text-anchor="middle" fill="#cbd5e1" font-size="12" font-family="Segoe UI, Arial, sans-serif"><= 5s</text>
  <text x="878" y="72" text-anchor="middle" fill="#67e8f9" font-size="12" font-family="Segoe UI, Arial, sans-serif">1</text>
  <rect x="944" y="80" width="112" height="400" fill="url(#bar)" rx="6"/>
  <text x="1000" y="502" text-anchor="middle" fill="#cbd5e1" font-size="12" font-family="Segoe UI, Arial, sans-serif"><= 10s</text>
  <text x="1000" y="72" text-anchor="middle" fill="#67e8f9" font-size="12" font-family="Segoe UI, Arial, sans-serif">1</text>

  <text x="1060" y="600" text-anchor="end" fill="#64748b" font-size="12" font-family="Segoe UI, Arial, sans-serif">
    Generated by docs/internal/generate-aggregation-histogram.mjs
  </text>
</svg>
